<?xml version="1.0" encoding="UTF-8"?>
<svg id="Layer_2" data-name="Layer 2" xmlns="http://www.w3.org/2000/svg" viewBox="0 0 38.93 39">
  <defs>
    <style>
      .cls-1 {
        fill: none;
        stroke: #5d5bb9;
        stroke-linecap: round;
        stroke-linejoin: round;
        stroke-width: 4px;
      }
    </style>
  </defs>
  <g id="Layer_1-2" data-name="Layer 1">
    <path class="cls-1" d="m36.93,28.2v5.27c0,1.94-1.56,3.52-3.5,3.53-.11,0-.22,0-.33-.01-5.4-.59-10.6-2.43-15.16-5.39-4.24-2.7-7.84-6.29-10.54-10.54-2.97-4.58-4.82-9.8-5.39-15.23-.17-1.93,1.25-3.64,3.18-3.81.1,0,.21-.01.31-.01h5.27c1.76-.02,3.27,1.28,3.51,3.02.22,1.69.63,3.34,1.23,4.94.48,1.28.17,2.73-.79,3.71l-2.23,2.23c2.5,4.4,6.14,8.04,10.54,10.54l2.23-2.23c.98-.96,2.42-1.27,3.71-.79,1.59.59,3.25,1.01,4.94,1.23,1.77.25,3.07,1.78,3.02,3.57Z"/>
  </g>
</svg>