<?xml version="1.0" encoding="UTF-8"?>
<svg id="Layer_2" data-name="Layer 2" xmlns="http://www.w3.org/2000/svg" viewBox="0 0 47.33 47.33">
  <defs>
    <style>
      .cls-1 {
        fill: #dcddde;
      }
    </style>
  </defs>
  <g id="Layer_1-2" data-name="Layer 1">
    <path class="cls-1" d="m23.66,32.3l8.64-8.64-8.64-8.64-2.48,2.48,4.38,4.38h-10.77v3.55h10.77l-4.38,4.38,2.48,2.48Zm0,15.03c-3.23,0-6.29-.62-9.17-1.86-2.88-1.24-5.39-2.94-7.54-5.09-2.15-2.15-3.85-4.66-5.09-7.54-1.24-2.88-1.86-5.94-1.86-9.17s.62-6.35,1.86-9.23c1.24-2.88,2.94-5.38,5.09-7.51,2.15-2.13,4.66-3.82,7.54-5.06,2.88-1.24,5.94-1.86,9.17-1.86s6.35.62,9.23,1.86c2.88,1.24,5.38,2.93,7.51,5.06,2.13,2.13,3.82,4.63,5.06,7.51,1.24,2.88,1.86,5.96,1.86,9.23s-.62,6.29-1.86,9.17c-1.24,2.88-2.93,5.39-5.06,7.54-2.13,2.15-4.63,3.85-7.51,5.09-2.88,1.24-5.96,1.86-9.23,1.86Zm0-3.55c5.6,0,10.35-1.96,14.26-5.89,3.9-3.92,5.86-8.67,5.86-14.23s-1.95-10.35-5.86-14.26c-3.9-3.9-8.66-5.86-14.26-5.86s-10.3,1.95-14.23,5.86c-3.92,3.9-5.89,8.66-5.89,14.26s1.96,10.3,5.89,14.23c3.92,3.92,8.67,5.89,14.23,5.89Z"/>
  </g>
</svg>