<?xml version="1.0" encoding="UTF-8"?>
<svg id="Layer_2" data-name="Layer 2" xmlns="http://www.w3.org/2000/svg" viewBox="0 0 59.45 59.42">
  <defs>
    <style>
      .cls-1 {
        fill: none;
        stroke: #1683bd;
        stroke-linecap: round;
        stroke-linejoin: round;
        stroke-width: 4px;
      }
    </style>
  </defs>
  <g id="Layer_1-2" data-name="Layer 1">
    <g>
      <path class="cls-1" d="m7.16,20.33c-1.33-5.98,2.44-11.9,8.42-13.22,1.59-.35,3.24-.35,4.83,0,3.3-5.16,10.15-6.67,15.31-3.37,1.35.87,2.5,2.01,3.37,3.37,5.97-1.34,11.9,2.41,13.25,8.38.36,1.6.36,3.26,0,4.86,5.16,3.3,6.67,10.15,3.37,15.31-.87,1.35-2.01,2.5-3.37,3.37,1.34,5.97-2.42,11.9-8.39,13.24-1.59.36-3.24.36-4.83,0-3.29,5.17-10.14,6.69-15.3,3.4-1.37-.87-2.53-2.03-3.4-3.4-5.97,1.34-11.9-2.42-13.24-8.39-.36-1.59-.36-3.24,0-4.83-5.17-3.27-6.71-10.12-3.44-15.29.88-1.39,2.05-2.56,3.44-3.44Z"/>
      <path class="cls-1" d="m40.83,18.62h-16.63c-3.06,0-5.54,2.48-5.54,5.54s2.48,5.54,5.54,5.54h11.09c3.06,0,5.54,2.48,5.54,5.54s-2.48,5.54-5.54,5.54h-16.63"/>
      <path class="cls-1" d="m29.74,46.33V13.07"/>
    </g>
  </g>
</svg>