<?xml version="1.0" encoding="UTF-8"?>
<svg id="Layer_2" data-name="Layer 2" xmlns="http://www.w3.org/2000/svg" viewBox="0 0 19 19">
  <defs>
    <style>
      .cls-1 {
        fill: #fff;
      }
    </style>
  </defs>
  <g id="Layer_1-2" data-name="Layer 1">
    <g>
      <path class="cls-1" d="m9.5,14.38c-2.69,0-4.88-2.19-4.88-4.88s2.19-4.88,4.88-4.88,4.88,2.19,4.88,4.88-2.19,4.88-4.88,4.88Zm0-8.14c-1.8,0-3.26,1.46-3.26,3.26s1.46,3.26,3.26,3.26,3.26-1.46,3.26-3.26-1.46-3.26-3.26-3.26Z"/>
      <path class="cls-1" d="m14.04,19H4.96c-2.73,0-4.96-2.22-4.96-4.96V4.96C0,2.22,2.22,0,4.96,0h9.08c2.73,0,4.96,2.22,4.96,4.96v9.08c0,2.73-2.22,4.96-4.96,4.96ZM4.96,1.63c-1.84,0-3.33,1.5-3.33,3.33v9.08c0,1.84,1.5,3.33,3.33,3.33h9.08c1.84,0,3.33-1.5,3.33-3.33V4.96c0-1.84-1.5-3.33-3.33-3.33H4.96Z"/>
      <circle class="cls-1" cx="14.52" cy="4.4" r="1.12"/>
    </g>
  </g>
</svg>