<?xml version="1.0" encoding="UTF-8"?>
<svg id="Layer_2" data-name="Layer 2" xmlns="http://www.w3.org/2000/svg" viewBox="0 0 199.4 38.12">
  <defs>
    <style>
      .cls-1 {
        fill: #fff;
        fill-rule: evenodd;
      }
    </style>
  </defs>
  <g id="Layer_1-2" data-name="Layer 1">
    <g>
      <path class="cls-1" d="m19.06,0c10.52,0,19.06,8.54,19.06,19.06s-8.54,19.06-19.06,19.06S0,29.58,0,19.06,8.54,0,19.06,0h0Zm13.48,19.06H4.63c0,7.97,6.46,14.43,14.43,14.43s14.43-6.46,14.43-14.43h-.95Z"/>
      <g>
        <path class="cls-1" d="m95.26,3.46c8.63,0,15.63,7,15.63,15.62s-7,15.63-15.63,15.63-15.62-7-15.62-15.63,7-15.62,15.62-15.62h0Zm0,6.61c-4.98,0-9.02,4.04-9.02,9.02s4.04,9.02,9.02,9.02,9.02-4.04,9.02-9.02-4.04-9.02-9.02-9.02Z"/>
        <path class="cls-1" d="m154.77,3.46c8.63,0,15.63,7,15.63,15.62s-7,15.63-15.63,15.63-15.62-7-15.62-15.63,7-15.62,15.62-15.62h0Zm0,6.61c-4.98,0-9.02,4.04-9.02,9.02s4.04,9.02,9.02,9.02,9.02-4.04,9.02-9.02-4.04-9.02-9.02-9.02Z"/>
        <path class="cls-1" d="m77.52,34.23h-6.75l-.03-17.73c0-1.79-.59-3.36-1.79-4.71-1.19-1.36-2.68-2.03-4.49-2.03s-3.23.62-4.43,1.85c-1.2,1.24-1.8,2.71-1.8,4.43v18.19h-6.9V15.91c0-3.46,1.26-6.43,3.78-8.91,2.52-2.47,5.63-3.71,9.33-3.71,2.96,0,5.68.94,8.16,2.8,3.27,2.47,4.91,5.9,4.91,10.28v17.85Z"/>
        <path class="cls-1" d="m140.55,4l-10.4,27.58c-.88,2.16-2.47,3.24-4.79,3.24-1.12,0-2.11-.31-3.01-.94-.88-.62-1.5-1.51-1.84-2.65l-10.31-27.24h7.39l7.89,20.89,7.83-20.89h7.25Z"/>
        <path class="cls-1" d="m173.22,3.72c.08,0,.15,0,.23,0,5.24.07,9.88,2.4,12.86,6,3.02-3.65,7.76-6,13.09-6h0v6.5h0c-5.26,0-9.53,3.97-9.53,8.87s4.27,8.87,9.53,8.87h0v6.5h0c-5.33,0-10.07-2.35-13.09-6-3,3.63-7.71,5.97-13,6h-.09s0-6.5,0-6.5h.12c5.21-.06,9.41-4.01,9.41-8.87s-4.16-8.77-9.33-8.87h-.2V3.72Z"/>
      </g>
    </g>
  </g>
</svg>