<?xml version="1.0" encoding="UTF-8"?>
<svg id="Layer_2" data-name="Layer 2" xmlns="http://www.w3.org/2000/svg" xmlns:xlink="http://www.w3.org/1999/xlink" viewBox="0 0 188.71 36.08">
  <defs>
    <style>
      .cls-1 {
        fill: url(#New_Gradient_Swatch_151);
      }

      .cls-1, .cls-2, .cls-3, .cls-4, .cls-5, .cls-6 {
        fill-rule: evenodd;
      }

      .cls-2 {
        fill: url(#New_Gradient_Swatch_151-6);
      }

      .cls-3 {
        fill: url(#New_Gradient_Swatch_151-4);
      }

      .cls-4 {
        fill: url(#New_Gradient_Swatch_151-5);
      }

      .cls-5 {
        fill: url(#New_Gradient_Swatch_151-2);
      }

      .cls-6 {
        fill: url(#New_Gradient_Swatch_151-3);
      }
    </style>
    <linearGradient id="New_Gradient_Swatch_151" data-name="New Gradient Swatch 151" x1="180.42" y1="-29.69" x2=".29" y2="23.26" gradientUnits="userSpaceOnUse">
      <stop offset="0" stop-color="#ff00af"/>
      <stop offset="1" stop-color="#008fbe"/>
    </linearGradient>
    <linearGradient id="New_Gradient_Swatch_151-2" data-name="New Gradient Swatch 151" x1="186.16" y1="-10.16" x2="6.03" y2="42.79" xlink:href="#New_Gradient_Swatch_151"/>
    <linearGradient id="New_Gradient_Swatch_151-3" data-name="New Gradient Swatch 151" x1="190.64" y1="5.08" x2="10.51" y2="58.03" xlink:href="#New_Gradient_Swatch_151"/>
    <linearGradient id="New_Gradient_Swatch_151-4" data-name="New Gradient Swatch 151" x1="184.17" y1="-16.93" x2="4.04" y2="36.02" xlink:href="#New_Gradient_Swatch_151"/>
    <linearGradient id="New_Gradient_Swatch_151-5" data-name="New Gradient Swatch 151" x1="187.97" y1="-3.99" x2="7.84" y2="48.96" xlink:href="#New_Gradient_Swatch_151"/>
    <linearGradient id="New_Gradient_Swatch_151-6" data-name="New Gradient Swatch 151" x1="193.01" y1="13.16" x2="12.88" y2="66.11" xlink:href="#New_Gradient_Swatch_151"/>
  </defs>
  <g id="Layer_1-2" data-name="Layer 1">
    <g>
      <path class="cls-1" d="m18.04,0c9.96,0,18.04,8.08,18.04,18.04s-8.08,18.04-18.04,18.04S0,28,0,18.04,8.08,0,18.04,0h0Zm12.75,18.04H4.38c0,7.54,6.12,13.66,13.66,13.66s13.66-6.12,13.66-13.66h-.9Z"/>
      <g>
        <path class="cls-5" d="m90.16,3.27c8.17,0,14.79,6.62,14.79,14.79s-6.62,14.79-14.79,14.79-14.79-6.62-14.79-14.79,6.62-14.79,14.79-14.79h0Zm0,6.25c-4.71,0-8.54,3.82-8.54,8.54s3.82,8.54,8.54,8.54,8.54-3.82,8.54-8.54-3.82-8.54-8.54-8.54Z"/>
        <path class="cls-6" d="m146.48,3.27c8.17,0,14.79,6.62,14.79,14.79s-6.62,14.79-14.79,14.79-14.79-6.62-14.79-14.79,6.62-14.79,14.79-14.79h0Zm0,6.25c-4.71,0-8.54,3.82-8.54,8.54s3.82,8.54,8.54,8.54,8.54-3.82,8.54-8.54-3.82-8.54-8.54-8.54Z"/>
        <path class="cls-3" d="m73.37,32.4h-6.39l-.03-16.78c0-1.69-.56-3.18-1.69-4.46-1.12-1.28-2.54-1.93-4.25-1.93s-3.06.59-4.19,1.76c-1.13,1.17-1.7,2.57-1.7,4.19v17.22h-6.53V15.06c0-3.28,1.19-6.09,3.58-8.43,2.39-2.34,5.33-3.51,8.83-3.51,2.8,0,5.38.89,7.72,2.65,3.1,2.34,4.64,5.59,4.64,9.73v16.89Z"/>
        <path class="cls-4" d="m133.02,3.78l-9.84,26.11c-.83,2.05-2.34,3.07-4.53,3.07-1.06,0-2-.29-2.85-.89-.83-.59-1.42-1.43-1.75-2.51l-9.76-25.78h6.99l7.47,19.77,7.41-19.77h6.86Z"/>
        <path class="cls-2" d="m163.94,3.52c.07,0,.15,0,.22,0,4.95.06,9.35,2.27,12.17,5.68,2.86-3.45,7.34-5.68,12.39-5.68h0v6.15h0c-4.98,0-9.02,3.76-9.02,8.4s4.04,8.4,9.02,8.4h0v6.15h0c-5.04,0-9.53-2.23-12.39-5.68-2.84,3.43-7.29,5.65-12.3,5.68h-.08s0-6.15,0-6.15h.11c4.93-.06,8.91-3.79,8.91-8.4s-3.94-8.3-8.83-8.39h-.19V3.52Z"/>
      </g>
    </g>
  </g>
</svg>